<?xml version="1.0" standalone="no"?>
<!DOCTYPE svg PUBLIC "-//W3C//DTD SVG 20010904//EN"
 "http://www.w3.org/TR/2001/REC-SVG-20010904/DTD/svg10.dtd">
<svg version="1.0" xmlns="http://www.w3.org/2000/svg"
 width="460.000000pt" height="460.000000pt" viewBox="0 0 460.000000 460.000000"
 preserveAspectRatio="xMidYMid meet">
<metadata>
Created by potrace 1.11, written by Peter Selinger 2001-2013
</metadata>
<g transform="translate(0.000000,460.000000) scale(0.100000,-0.100000)"
fill="#000000" stroke="none">
<path d="M852 4589 c-273 -53 -487 -268 -538 -540 -33 -173 1 -348 95 -491 50
-76 143 -174 173 -184 10 -3 18 -10 18 -15 0 -24 33 -2 110 74 47 45 112 113
145 151 33 38 65 74 71 80 5 6 51 65 100 131 177 235 311 451 361 584 27 73
32 64 -67 125 -93 58 -199 88 -320 91 -58 2 -124 -1 -148 -6z"/>
<path d="M1447 4321 c-57 -193 -318 -578 -583 -861 -23 -25 -65 -69 -93 -99
-28 -30 -51 -58 -51 -62 0 -5 65 -28 100 -35 106 -20 215 -22 290 -4 43 10 58
22 118 88 147 165 285 358 376 525 42 77 47 93 43 131 -15 124 -78 266 -156
358 -9 10 -18 18 -21 18 -3 0 -13 -26 -23 -59z"/>
<path d="M2212 3944 c-23 -10 -49 -39 -89 -102 -68 -106 -195 -295 -228 -340
-22 -31 -23 -36 -10 -56 8 -12 34 -33 57 -46 63 -36 325 -149 359 -155 48 -9
79 32 280 353 53 86 62 120 38 149 -12 14 -162 115 -270 181 -46 28 -96 34
-137 16z"/>
<path d="M1697 3893 c-92 -180 -280 -446 -434 -614 -24 -25 -43 -48 -43 -51 0
-3 43 -31 96 -63 90 -54 96 -56 109 -38 123 176 211 275 269 303 44 21 120 27
131 10 12 -20 21 -9 17 23 -3 25 4 42 30 75 18 24 51 69 74 100 l40 57 -75 59
c-42 33 -78 62 -81 65 -3 3 -31 27 -62 54 l-56 47 -15 -27z"/>
<path d="M2709 3688 c-27 -15 -61 -63 -149 -210 -166 -276 -156 -255 -136
-277 9 -10 72 -42 140 -70 68 -29 134 -63 147 -77 l23 -24 -17 -88 c-25 -130
-25 -169 -1 -179 19 -7 52 24 119 112 29 39 67 86 85 105 17 19 79 114 138
210 98 162 106 179 107 227 0 40 -5 57 -23 76 -20 21 -238 159 -310 196 -39
20 -87 20 -123 -1z"/>
<path d="M1693 3381 c-57 -40 -103 -91 -175 -196 -34 -49 -68 -96 -74 -103
-58 -59 -314 -533 -328 -606 -10 -53 27 -116 216 -367 155 -206 231 -317 347
-504 29 -47 102 -153 161 -235 143 -196 143 -196 130 -270 -6 -33 -13 -72 -16
-87 -4 -29 -16 -94 -19 -103 -1 -3 -5 -30 -9 -60 -5 -30 -10 -64 -12 -75 -10
-50 -31 -178 -38 -230 -3 -22 -7 -49 -10 -60 -2 -11 -7 -45 -10 -76 -4 -31 -9
-67 -12 -80 -12 -61 -16 -286 -5 -307 l11 -22 691 3 c733 4 713 2 704 49 -3
11 1 43 7 71 6 30 12 195 13 382 2 182 6 364 9 405 4 41 8 99 11 129 3 42 11
62 35 90 17 20 47 62 68 95 20 32 58 82 83 110 60 66 74 94 99 202 12 49 25
105 30 124 9 31 7 37 -13 52 -12 10 -27 18 -34 18 -6 0 -13 3 -15 8 -1 4 -56
40 -120 80 -102 64 -119 72 -136 61 -18 -11 -24 -8 -54 22 -19 19 -67 63 -108
99 -40 36 -87 80 -104 99 -37 40 -103 74 -171 90 -27 6 -84 20 -125 31 -41 11
-88 23 -105 26 -16 2 -38 7 -47 10 -23 7 -58 14 -95 19 -18 3 -50 9 -72 14
-51 11 -67 2 -50 -30 10 -20 118 -158 191 -244 166 -198 157 -183 227 -375 24
-63 46 -124 51 -135 5 -11 21 -51 35 -90 35 -89 47 -107 95 -140 22 -15 40
-30 40 -34 -1 -10 -77 -61 -92 -61 -8 0 -25 -11 -38 -25 -21 -22 -23 -33 -23
-142 0 -65 3 -201 7 -303 12 -308 12 -333 -1 -337 -10 -4 -13 15 -14 69 -1 86
-3 115 -14 188 -5 30 -9 87 -10 125 -2 77 -7 115 -35 285 -11 63 -21 130 -24
148 -2 19 -7 37 -11 40 -3 4 -41 7 -83 8 -42 2 -85 3 -94 3 -22 1 -24 21 -3
21 43 0 223 118 246 162 13 24 9 34 -75 168 -141 226 -427 642 -518 751 -32
40 -49 50 -110 69 -40 13 -102 38 -138 56 -36 18 -84 35 -107 39 -22 3 -49 12
-59 20 -17 12 -15 14 20 29 83 35 144 160 122 253 -5 24 -6 46 -3 49 11 11 53
-23 159 -127 l102 -101 66 6 c36 3 77 8 93 11 53 10 212 67 246 88 51 31 77
100 85 225 3 42 0 54 -18 70 -30 26 -137 79 -316 157 -85 36 -164 71 -175 76
-94 42 -250 98 -253 90 -2 -6 -20 0 -40 13 -44 27 -97 46 -126 46 -12 0 -40
-14 -63 -29z"/>
<path d="M3148 3242 c-14 -9 -64 -71 -110 -137 -453 -647 -433 -616 -433 -671
0 -38 6 -58 20 -74 11 -13 87 -55 168 -95 131 -64 153 -72 183 -65 19 5 43 14
54 22 15 10 345 421 480 598 37 49 50 85 43 127 -5 31 -27 58 -136 166 -72 71
-141 133 -154 138 -38 14 -85 11 -115 -9z"/>
<path d="M3618 2841 c-13 -5 -67 -65 -167 -186 -9 -11 -42 -51 -75 -90 -32
-38 -65 -79 -75 -90 -104 -127 -157 -191 -161 -195 -4 -3 -25 -29 -48 -58 -62
-79 -59 -94 43 -201 86 -89 116 -108 153 -93 17 6 242 219 549 519 109 106
109 117 16 216 -155 161 -196 192 -235 178z"/>
<path d="M2535 2649 c-55 -16 -109 -31 -120 -34 -11 -3 -54 -13 -95 -24 -94
-23 -129 -20 -157 16 -48 60 -53 64 -76 57 -12 -4 -27 -14 -33 -22 -21 -29 -3
-58 71 -112 72 -53 259 -160 281 -160 6 0 32 26 57 58 25 31 53 66 64 77 69
76 133 155 133 164 0 16 -12 14 -125 -20z"/>
<path d="M3639 2202 c-62 -59 -154 -149 -205 -200 l-91 -92 126 -78 c258 -160
386 -237 398 -238 7 -1 36 12 65 29 115 69 244 290 208 357 -5 9 -69 66 -142
125 -73 60 -158 130 -189 156 l-56 48 -114 -107z"/>
<path d="M4160 1834 c-18 -54 -83 -146 -135 -192 l-46 -41 55 -37 c95 -63 125
-51 216 83 51 77 57 94 41 136 -8 21 -93 87 -112 87 -4 0 -13 -16 -19 -36z"/>
</g>
</svg>
